<svg id="visual" viewBox="0 0 900 600" width="900" height="600" xmlns="http://www.w3.org/2000/svg" xmlns:xlink="http://www.w3.org/1999/xlink" version="1.1"><path d="M0 517L25 516.3C50 515.7 100 514.3 150 514C200 513.7 250 514.3 300 523C350 531.7 400 548.3 450 555C500 561.7 550 558.3 600 555C650 551.7 700 548.3 750 541.2C800 534 850 523 875 517.5L900 512L900 601L875 601C850 601 800 601 750 601C700 601 650 601 600 601C550 601 500 601 450 601C400 601 350 601 300 601C250 601 200 601 150 601C100 601 50 601 25 601L0 601Z" fill="#fff" stroke-linecap="round" stroke-linejoin="miter"></path></svg>